<?xml version="1.0" encoding="UTF-8"?>
<svg id="Layer_1" data-name="Layer 1" xmlns="http://www.w3.org/2000/svg" version="1.1" xmlns:xlink="http://www.w3.org/1999/xlink" viewBox="0 0 101.1 101.1">
  <defs>
    <style>
      .cls-1 {
        fill: #ccc;
      }

      .cls-1, .cls-2, .cls-3, .cls-4, .cls-5, .cls-6, .cls-7, .cls-8 {
        stroke-width: 0px;
      }

      .cls-2 {
        fill: #f2f2f2;
      }

      .cls-9, .cls-8 {
        isolation: isolate;
      }

      .cls-3 {
        fill: #1a1a1a;
      }

      .cls-4 {
        fill: none;
      }

      .cls-5 {
        fill: #3f3f3f;
      }

      .cls-6 {
        fill: #e6e6e6;
      }

      .cls-10 {
        clip-path: url(#clippath);
      }

      .cls-7 {
        fill: #333;
      }

      .cls-8 {
        fill: #525252;
        mix-blend-mode: screen;
        opacity: .3;
      }
    </style>
    <clipPath id="clippath">
      <path class="cls-4" d="M71.9,50.6c0,43.5-21.3,50.6-21.3,50.6,27.9,0,50.6-22.6,50.6-50.6S78.5,0,50.6,0c0,0,21.3,7.1,21.3,50.6h0Z"/>
    </clipPath>
  </defs>
  <g class="cls-9">
    <g id="b">
      <g id="c">
        <g>
          <g>
            <g>
              <circle class="cls-5" cx="50.6" cy="50.6" r="50.6"/>
              <path class="cls-7" d="M98.9,35.8c-.8,10.1-4.2,19.6-9.7,27.6-.9-1.1-2.7-1.6-4-.3-1.7,1.6-2.9,3.6-4.2,5.5-2.1,2.9-4.7,2.2-7.8,1.5-4.6-1-10.5-.7-12.5,4.3-1.8,4.5,2.2,7.3,6,8.4-1.9.9-3.8,1.8-5.8,2.5-1.2,0-2.4-.2-3.5-.2-4-.1-7.5-1.3-11.4-1.8-1.4-.2-3.2.2-4.3,1.2-1.3,1.1-1.3.9-3.1.6-1.8-.2-3.8.6-5.5.7-2.5.2-5.1-.7-7.6-.7-.7,0-1.3.2-1.7.5-6-2.1-11.5-5.1-16.4-8.9,8.9,14.5,24.9,24.2,43.2,24.2,27.9,0,50.6-22.6,50.6-50.6s-.8-10.1-2.2-14.8h0Z"/>
              <path class="cls-3" d="M99.6,38.3c0,.6,0,1.1,0,1.7,0,29.8-24.8,54.6-54.6,54.6s-24.1-4.4-33.4-11.7c9.3,11.2,23.2,18.3,38.9,18.3,27.9,0,50.6-22.6,50.6-50.6s-.5-8.4-1.5-12.3h0Z"/>
              <path class="cls-7" d="M91.8,45.7c-.3-.7-.6-1.5-.9-2.1-1.6-2.2-3-4.2-5.2-6.7-.6-.6-1.3-1.2-2-1.9-4.7-4.2-9.4-8.2-10.4-14.9-.6-1.3-1.3-2.5-2.1-3.7-1.6-2.4-3.5-4.5-5.7-6.3-.3-.2-.6-.4-.9-.6-2.2,0-3.8,0-5.7,1.4-.8.6-2.1.7-3,.4-3.3-.9-5.5-3.9-9-4.7-2-.5-4-.9-6.2-1.3-8.4-.4-17.4,2.5-19.7,12.2-.6.9-1.1,1.8-1.6,2.7-.5.9-1,1.9-1.4,2.8-.9,1.7-2.6,2-4.3,2.7-8.2,3.8-12.2,14-11.6,22.5.6,7.5,4.5,19.9,14.4,16.9,1.9-.6,3.5-1.9,4.7-3.4.6,0,1.3.2,1.9.3,3.4.7,4.3,4.3,5.8,6.9,4.3,7.3,16.7,6.8,19.2-1.8.5-1.9,0-4-.3-5.9-.4-2.1-.2-4.3-.7-6.4-.2-.9-.5-1.8-.7-2.8,0,0,0-.1,0-.2.9-.2,2.2,0,2.9-.2.6,0,1.2-.2,1.8-.2,1.9-.3,3.4-2.5,3.3-4.3,0-2.3-.7-4.2-2-6-.2-.3-.4-.5-.6-.8.3,0,.5,0,.8,0,2.2.4,4,2.3,6.3,2.7,1.3.2,2.6.2,4,.2,0,0,0,0,0,0,0,.3,0,.5,0,.8.2,5.2,5.1,9.3,10,10.1,1.4.2,2.6.1,3.7-.2.6-.2,1.1-.4,1.7-.7.5,0,1.9-1.5,2.6-1.5,2.8.7,2.8,5.5,6.2,5.5,5.5-.7,6.9-6.9,4.6-11.6h0ZM37,39.4c0,1.8-1,3.5-2.8,3.9,0,0-.1,0-.2,0-2.1,1.6-4.9,2.6-7.2,2.7-.9,0-1.7-.8-1.8-1.7-.1,0-.3-.2-.4-.3-1.8-1.7.1-4.9,1.8-5.8,1.3-.7,2.9-.7,4.4-.7,1.1-1.2,2.3-1.8,4.3-1.4.7.2,1.2.9,1.3,1.6.2.2.4.3.5.6.2.3.3.7.2,1.1h0Z"/>
              <path class="cls-7" d="M78.6,57.4c-.9-.9-2.1-1.2-3.4-.5-.7.4-1.3,1.3-1.4,2.2-.4.2-.7.4-1,.7-2.4,2.1-.2,5.6,2.4,6.1,1.6.3,3.1-.4,3.9-1.6.4-.5.7-1.2.7-1.8,0,0,0,0,0,0,1.4-1.8.4-4.1-1.3-5h0Z"/>
              <path class="cls-7" d="M24.8,64.9c-2.6-2.3-5.9-.3-7.1,2.3,0,0-.2.1-.2.2-1.1,1.2-1,2.7,0,3.9,1.6,1.9,4.7,2.8,6.8,1.2,1.3-.9,1.9-2.2,2-3.7.1-1.3-.5-3-1.5-3.9h0Z"/>
              <path class="cls-7" d="M88.1,19.9c-2.1-1.9-5.4-4.7-8.4-4.4-4,.4-4.4,5-2.7,7.8.4.6,1,1.1,1.6,1.2,0,.3.2.7.4,1,.3.5.6,1,.6,1.6,0,2.5,2.7,3.2,4.3,2.2.2,0,.4-.2.6-.3.4-.2.7-.5.9-1,.7-1.3,1.2-2.5,2-3.7,0,0,0,0,0-.1.2-.2.4-.4.6-.6,1-1,1.1-2.9,0-3.9h0Z"/>
              <path class="cls-3" d="M82.5,37.8c-.4-.3-.8-.6-1.1-.9-2.2-.8-4-1.9-5.5-3.4-.3-.3-.6-.6-.8-1-.3-.4-.6-.8-.8-1.3,0-.4-.2-.7-.3-1-.3-1-.7-2.1-1.1-3.1-.2-.5-.4-.9-.6-1.4-.1-.5-.3-1-.5-1.5s-.4-1-.7-1.5c-1-1-1.7-2.4-2.4-3.8-.2-.5-.5-.9-.7-1.4-.3-1.2-1.2-2.4-2.3-3.4-.4-.3-.8-.6-1.2-.8-1.5-1.1-3.5-1.1-4.2-.4-1.7,1.7-3.2,3.9-4.1,6.2-.2.5-.3.9-.5,1.4-.4,1.5-.5,3-.3,4.4,0,.5.1,1,.2,1.5-.2,3.7-3,8.6,1.2,9.9.3.1.7.2,1.1.3.4,0,.8.1,1.2.2,6.7-3.2,6.7,3.7,8.1,9.2.7.7,1.4,3.5,3.4,3.1.3,0,.7.2,1.1.2,1.8.2,3.7-.3,5.5-.8.4-.1.9-.2,1.3-.3,3.2,0,5.9,3.4,8.7,2.7,5.5-2.1-.7-10.4-3.9-12.3-.3-.3-.6-.6-.8-.8h0Z"/>
              <path class="cls-3" d="M49,14.6c2.2-4.3-2.6-5-5.1-4.6-.3,0-.7,0-1,0-.7,0-1.3,0-1.9.1-.9,0-1.8.2-2.7.4-1.7.3-2.5.1-4-.7-2-1.1-5.4-.9-6.1,1.7-.3,1-.2,1.9,0,2.9.3,1.6-2.6,1.4-3.7,2.1-2.3,1.5-3.3,4-4.8,6.2-1.4,2.1-1.5,4.8.3,6.8,2,2.3,3.7,4.7,6.9,4.9,1.5,0,3.1-.7,4.5-1.1,1.8-.5,4.2,1.2,5.9,1.8,2.1.7,4.8.7,7.2.1.4,0,.8-.2,1.1-.3,1.7-.3,3.1-1.7,2.4-2.4-.7-4.8-3.5-8.3,0-12.7.1-.4.3-.7.4-1,.4-1,.7-2,.8-3.2,0-.3,0-.6,0-.8h0Z"/>
              <path class="cls-3" d="M51.1,44.2c-1.2-2.1-3.3-4.2-6.2-4.8-.4,0-.8,0-1.2,0s-.8.1-1.2.2c-.4.2-.8.4-1.2.7-.4.3-.8.7-1.3,1.2-.3.3-.6.6-1,1-.2.4-.4.8-.7,1.1-.2.3-.5.6-.8.9-4.9,2.4-11.1,3.7-10.6,10.9,0,.5.1,1.1.2,1.6.4,2.2,1.1,4.3,2.1,6,.2.4.5.8.7,1.1,1.8,2.5,4.5,4.6,7.1,6.3.4.2.9.3,1.3.3,3,.5,5.9-1,6.7-4.6.1-.5.2-1,.3-1.6.2-1.6.3-3.2.3-4.6,0-.4,0-.8-.2-1.1,0-.4-.2-.7-.4-1.1-1.4-2.1-2.1-4.8-2.2-7.6.1-.3.3-.6.5-.9,2.6-3.8,8.6,2.5,8.3-3.7,0-.5-.2-1-.5-1.5h0Z"/>
              <path class="cls-3" d="M91.7,27.8c-.7-1.1-2.1-1.6-3.3-.9-.8.5-1.3,1.5-1.2,2.5-.2,1.2-.6,2.4-.6,3.6-.1,2.1,1.2,4.2,3.5,4.1,5,0,3.4-6.7,1.6-9.3Z"/>
              <path class="cls-3" d="M20.9,46.4c-.5,0-1-.2-1.2-.3-.3-.1-.5-.3-.5-.5.4-2.8,1.8-4.9,1.1-7.7-.3-.3-.5-.7-.7-1-.2-.3-.4-.7-.6-1-2.1-2.8,0-9-4.9-6.9-1.4,0-2.8,2.1-3.9,4.3-.2.5-.5.9-.7,1.4-2.8,6.1-3.9,13.9-2.5,20.2,0,.5.2.9.3,1.3.2,1.1.4,2,.8,2.9.1.3.3.5.5.8,1.3,2.3,4.1,3.7,6.1,3,1,0,1.2-1.2,1.5-2.5.1-.4.2-.9.4-1.3,2.1-3,4.9-1,7-2.4,2.1-.7,1.4-4.1,1.4-6,0-.4-.2-.8-.4-1.2-.6-1.5-1.8-2.7-3.8-3Z"/>
            </g>
            <path class="cls-8" d="M46.1,5.4c-9.9,0-19,5.1-26.1,11.6-3.6,3.3-6.8,7.4-9.4,11.5-3.1,4.9-4,10.4-5.3,15.9-1.6,7.2,9.4,10.2,11,3,.9-3.8,1.3-7.7,3-11.2,1.8-3.6,4.5-6.9,7.3-9.8,5-5.2,12.1-9.6,19.5-9.6,7.4,0,7.4-11.4,0-11.4Z"/>
          </g>
          <g class="cls-10">
            <g>
              <circle class="cls-2" cx="50.6" cy="50.6" r="50.6"/>
              <path class="cls-6" d="M98.9,35.8c-.8,10.1-4.2,19.6-9.7,27.6-.9-1.1-2.7-1.6-4-.3-1.7,1.6-2.9,3.6-4.2,5.5-2.1,2.9-4.7,2.2-7.8,1.5-4.6-1-10.5-.7-12.5,4.3-1.8,4.5,2.2,7.3,6,8.4-1.9.9-3.8,1.8-5.8,2.5-1.2,0-2.4-.2-3.5-.2-4-.1-7.5-1.3-11.4-1.8-1.4-.2-3.2.2-4.3,1.2-1.3,1.1-1.3.9-3.1.6-1.8-.2-3.8.6-5.5.7-2.5.2-5.1-.7-7.6-.7-.7,0-1.3.2-1.7.5-6-2.1-11.5-5.1-16.4-8.9,8.9,14.5,24.9,24.2,43.2,24.2,27.9,0,50.6-22.6,50.6-50.6s-.8-10.1-2.2-14.8h0Z"/>
              <path class="cls-1" d="M99.6,38.3c0,.6,0,1.1,0,1.7,0,29.8-24.8,54.6-54.6,54.6s-24.1-4.4-33.4-11.7c9.3,11.2,23.2,18.3,38.9,18.3,27.9,0,50.6-22.6,50.6-50.6s-.5-8.4-1.5-12.3h0Z"/>
              <path class="cls-6" d="M91.8,45.7c-.3-.7-.6-1.5-.9-2.1-1.6-2.2-3-4.2-5.2-6.7-.6-.6-1.3-1.2-2-1.9-4.7-4.2-9.4-8.2-10.4-14.9-.6-1.3-1.3-2.5-2.1-3.7-1.6-2.4-3.5-4.5-5.7-6.3-.3-.2-.6-.4-.9-.6-2.2,0-3.8,0-5.7,1.4-.8.6-2.1.7-3,.4-3.3-.9-5.5-3.9-9-4.7-2-.5-4-.9-6.2-1.3-8.4-.4-17.4,2.5-19.7,12.2-.6.9-1.1,1.8-1.6,2.7-.5.9-1,1.9-1.4,2.8-.9,1.7-2.6,2-4.3,2.7-8.2,3.8-12.2,14-11.6,22.5.6,7.5,4.5,19.9,14.4,16.9,1.9-.6,3.5-1.9,4.7-3.4.6,0,1.3.2,1.9.3,3.4.7,4.3,4.3,5.8,6.9,4.3,7.3,16.7,6.8,19.2-1.8.5-1.9,0-4-.3-5.9-.4-2.1-.2-4.3-.7-6.4-.2-.9-.5-1.8-.7-2.8,0,0,0-.1,0-.2.9-.2,2.2,0,2.9-.2.6,0,1.2-.2,1.8-.2,1.9-.3,3.4-2.5,3.3-4.3,0-2.3-.7-4.2-2-6-.2-.3-.4-.5-.6-.8.3,0,.5,0,.8,0,2.2.4,4,2.3,6.3,2.7,1.3.2,2.6.2,4,.2,0,0,0,0,0,0,0,.3,0,.5,0,.8.2,5.2,5.1,9.3,10,10.1,1.4.2,2.6.1,3.7-.2.6-.2,1.1-.4,1.7-.7.5,0,1.9-1.5,2.6-1.5,2.8.7,2.8,5.5,6.2,5.5,5.5-.7,6.9-6.9,4.6-11.6h0ZM37,39.4c0,1.8-1,3.5-2.8,3.9,0,0-.1,0-.2,0-2.1,1.6-4.9,2.6-7.2,2.7-.9,0-1.7-.8-1.8-1.7-.1,0-.3-.2-.4-.3-1.8-1.7.1-4.9,1.8-5.8,1.3-.7,2.9-.7,4.4-.7,1.1-1.2,2.3-1.8,4.3-1.4.7.2,1.2.9,1.3,1.6.2.2.4.3.5.6.2.3.3.7.2,1.1h0Z"/>
              <path class="cls-6" d="M78.6,57.4c-.9-.9-2.1-1.2-3.4-.5-.7.4-1.3,1.3-1.4,2.2-.4.2-.7.4-1,.7-2.4,2.1-.2,5.6,2.4,6.1,1.6.3,3.1-.4,3.9-1.6.4-.5.7-1.2.7-1.8,0,0,0,0,0,0,1.4-1.8.4-4.1-1.3-5h0Z"/>
              <path class="cls-6" d="M24.8,64.9c-2.6-2.3-5.9-.3-7.1,2.3,0,0-.2.1-.2.2-1.1,1.2-1,2.7,0,3.9,1.6,1.9,4.7,2.8,6.8,1.2,1.3-.9,1.9-2.2,2-3.7.1-1.3-.5-3-1.5-3.9h0Z"/>
              <path class="cls-6" d="M88.1,19.9c-2.1-1.9-5.4-4.7-8.4-4.4-4,.4-4.4,5-2.7,7.8.4.6,1,1.1,1.6,1.2,0,.3.2.7.4,1,.3.5.6,1,.6,1.6,0,2.5,2.7,3.2,4.3,2.2.2,0,.4-.2.6-.3.4-.2.7-.5.9-1,.7-1.3,1.2-2.5,2-3.7,0,0,0,0,0-.1.2-.2.4-.4.6-.6,1-1,1.1-2.9,0-3.9h0Z"/>
              <path class="cls-1" d="M82.5,37.8c-.4-.3-.8-.6-1.1-.9-2.2-.8-4-1.9-5.5-3.4-.3-.3-.6-.6-.8-1-.3-.4-.6-.8-.8-1.3,0-.4-.2-.7-.3-1-.3-1-.7-2.1-1.1-3.1-.2-.5-.4-.9-.6-1.4-.1-.5-.3-1-.5-1.5s-.4-1-.7-1.5c-1-1-1.7-2.4-2.4-3.8-.2-.5-.5-.9-.7-1.4-.3-1.2-1.2-2.4-2.3-3.4-.4-.3-.8-.6-1.2-.8-1.5-1.1-3.5-1.1-4.2-.4-1.7,1.7-3.2,3.9-4.1,6.2-.2.5-.3.9-.5,1.4-.4,1.5-.5,3-.3,4.4,0,.5.1,1,.2,1.5-.2,3.7-3,8.6,1.2,9.9.3.1.7.2,1.1.3.4,0,.8.1,1.2.2,6.7-3.2,6.7,3.7,8.1,9.2.7.7,1.4,3.5,3.4,3.1.3,0,.7.2,1.1.2,1.8.2,3.7-.3,5.5-.8.4-.1.9-.2,1.3-.3,3.2,0,5.9,3.4,8.7,2.7,5.5-2.1-.7-10.4-3.9-12.3-.3-.3-.6-.6-.8-.8h0Z"/>
              <path class="cls-1" d="M49,14.6c2.2-4.3-2.6-5-5.1-4.6-.3,0-.7,0-1,0-.7,0-1.3,0-1.9.1-.9,0-1.8.2-2.7.4-1.7.3-2.5.1-4-.7-2-1.1-5.4-.9-6.1,1.7-.3,1-.2,1.9,0,2.9.3,1.6-2.6,1.4-3.7,2.1-2.3,1.5-3.3,4-4.8,6.2-1.4,2.1-1.5,4.8.3,6.8,2,2.3,3.7,4.7,6.9,4.9,1.5,0,3.1-.7,4.5-1.1,1.8-.5,4.2,1.2,5.9,1.8,2.1.7,4.8.7,7.2.1.4,0,.8-.2,1.1-.3,1.7-.3,3.1-1.7,2.4-2.4-.7-4.8-3.5-8.3,0-12.7.1-.4.3-.7.4-1,.4-1,.7-2,.8-3.2,0-.3,0-.6,0-.8h0Z"/>
              <path class="cls-1" d="M51.1,44.2c-1.2-2.1-3.3-4.2-6.2-4.8-.4,0-.8,0-1.2,0s-.8.1-1.2.2c-.4.2-.8.4-1.2.7-.4.3-.8.7-1.3,1.2-.3.3-.6.6-1,1-.2.4-.4.8-.7,1.1-.2.3-.5.6-.8.9-4.9,2.4-11.1,3.7-10.6,10.9,0,.5.1,1.1.2,1.6.4,2.2,1.1,4.3,2.1,6,.2.4.5.8.7,1.1,1.8,2.5,4.5,4.6,7.1,6.3.4.2.9.3,1.3.3,3,.5,5.9-1,6.7-4.6.1-.5.2-1,.3-1.6.2-1.6.3-3.2.3-4.6,0-.4,0-.8-.2-1.1,0-.4-.2-.7-.4-1.1-1.4-2.1-2.1-4.8-2.2-7.6.1-.3.3-.6.5-.9,2.6-3.8,8.6,2.5,8.3-3.7,0-.5-.2-1-.5-1.5h0Z"/>
              <path class="cls-1" d="M91.7,27.8c-.7-1.1-2.1-1.6-3.3-.9-.8.5-1.3,1.5-1.2,2.5-.2,1.2-.6,2.4-.6,3.6-.1,2.1,1.2,4.2,3.5,4.1,5,0,3.4-6.7,1.6-9.3Z"/>
              <path class="cls-1" d="M20.9,46.4c-.5,0-1-.2-1.2-.3-.3-.1-.5-.3-.5-.5.4-2.8,1.8-4.9,1.1-7.7-.3-.3-.5-.7-.7-1-.2-.3-.4-.7-.6-1-2.1-2.8,0-9-4.9-6.9-1.4,0-2.8,2.1-3.9,4.3-.2.5-.5.9-.7,1.4-2.8,6.1-3.9,13.9-2.5,20.2,0,.5.2.9.3,1.3.2,1.1.4,2,.8,2.9.1.3.3.5.5.8,1.3,2.3,4.1,3.7,6.1,3,1,0,1.2-1.2,1.5-2.5.1-.4.2-.9.4-1.3,2.1-3,4.9-1,7-2.4,2.1-.7,1.4-4.1,1.4-6,0-.4-.2-.8-.4-1.2-.6-1.5-1.8-2.7-3.8-3Z"/>
            </g>
          </g>
        </g>
      </g>
    </g>
  </g>
</svg>